HIERARCHY
ROOT pelvis
{
  OFFSET 0 100 0
  CHANNELS 6 Xposition Yposition Zposition Zrotation Xrotation Yrotation
  JOINT pelvis_right_femur
  {
    OFFSET -10.78128 -3.44521 -0.5502486
    CHANNELS 3 Zrotation Xrotation Yrotation
    JOINT right_femur_tibia
    {
      OFFSET -0.8047443 -44.0398 -0.1307829
      CHANNELS 3 Zrotation Xrotation Yrotation
      JOINT right_tibia_foot
      {
        OFFSET 3.006224 -47.83518 -5
        CHANNELS 3 Zrotation Xrotation Yrotation
        End Site
        {
          OFFSET 0 -5 15
        }
      }
    }
  }
  JOINT pelvis_left_femur
  {
    OFFSET 10.78128 -3.44521 -0.5502486
    CHANNELS 3 Zrotation Xrotation Yrotation
    JOINT left_femur_tibia
    {
      OFFSET 0.8047443 -44.0398 -0.1307829
      CHANNELS 3 Zrotation Xrotation Yrotation
      JOINT left_tibia_foot
      {
        OFFSET -4.370144 -48.10324 -4.275266
        CHANNELS 3 Zrotation Xrotation Yrotation
        End Site
        {
          OFFSET 0 -5 15
        }
      }
    }
  }
  JOINT pelvis_spine1
  {
    OFFSET 0 6.468898 -3.129235
    CHANNELS 3 Zrotation Xrotation Yrotation
    JOINT spine1
    {
      OFFSET 0 23.15396 4.99043
      CHANNELS 3 Zrotation Xrotation Yrotation
      JOINT spine2
      {
        OFFSET 0 20.79997 -5.064912
        CHANNELS 3 Zrotation Xrotation Yrotation
        JOINT neck
        {
          OFFSET 0 14.38658 9.616178
          CHANNELS 3 Zrotation Xrotation Yrotation
          End Site
          {
            OFFSET 0 20 0
          }
        }
      }
      JOINT right_manubrium
      {
        OFFSET -5.722621 16.35077 3.967754
        CHANNELS 3 Zrotation Xrotation Yrotation
        JOINT right_clavicle
        {
          OFFSET -13.16364 1.694482 -4.693211
          CHANNELS 3 Zrotation Xrotation Yrotation
          JOINT right_humerus
          {
            OFFSET -28.5034 -0.3100689 -2.792744
            CHANNELS 3 Zrotation Xrotation Yrotation
            JOINT right_radius
            {
              OFFSET -25.15693 0.02248979 -1.271978
              CHANNELS 3 Zrotation Xrotation Yrotation
              End Site
              {
                OFFSET -15 0 0
              }
            }
          }
        }
      }
      JOINT left_manubrium
      {
        OFFSET 5.722621 16.35077 3.967754
        CHANNELS 3 Zrotation Xrotation Yrotation
        JOINT left_clavicle
        {
          OFFSET 13.16364 1.694482 -4.693211
          CHANNELS 3 Zrotation Xrotation Yrotation
          JOINT left_humerus
          {
            OFFSET 29.39168 -1.063119 -2.237045
            CHANNELS 3 Zrotation Xrotation Yrotation
            JOINT left_radius
            {
              OFFSET 24.59957 -0.9528479 0.9047498
              CHANNELS 3 Zrotation Xrotation Yrotation
              End Site
              {
                OFFSET 15 -0 -0
              }
            }
          }
        }
      }
    }
  }
}
MOTION
Frames: 23
Frame Time: 0.0416666666667
0 103.5113 0 0.5983378 -1.273731 -0.001718368 3.668113 -15.13371 8.487563 -0 33.81609 -0 -6.272504 -15.59473 -3.794933 -6.856708 9.013563 -20.92821 -0 6.935717 -0 6.314989 -19.79808 26.71372 -3.398808 -4.067455 5.227325 2.524491 9.394163 -7.740819 1.583201 22.33094 5.766805 2.046568 -24.94392 9.442412 5.314729 -19.93362 10.79695 85.46126 31.957 -18.28655 -0 0 16.82869 -8.050361 8.746066 3.815805 8.032276 -20.63186 0.8702422 -95.55908 23.13561 22.45344 0 0 -10.25862 11.32321 19.24458 0.7584379
0.2636233 102.8247 1.80937 0.3674968 -0.6116936 0.009522292 4.061922 -17.61513 8.505307 -0 32.46285 -0 -6.169246 -14.37032 -3.486537 -6.728982 9.644568 -20.77025 -0 6.178887 -0 6.298864 -20.47297 26.40492 -3.243836 -3.979211 5.205403 2.517607 9.558593 -7.919669 1.57802 21.899 6.101554 2.421468 -25.24485 9.579715 5.37494 -19.83483 10.87017 85.64722 32.19226 -18.91496 -0 0 16.70255 -8.208829 8.835584 3.661253 8.405495 -21.16092 0.7896934 -95.12117 22.93442 21.86425 0 0 -11.48133 12.00027 18.88602 0.06624604
0.4577494 102.57 4.271661 -0.2125158 1.203883 0.1096116 5.222042 -20.13727 8.109398 -0 28.66639 -0 -7.385696 -13.93032 -2.733083 -6.31009 8.379881 -19.60422 -0 14.48873 -0 5.263418 -18.13346 22.75338 -2.859101 -3.042241 4.870256 3.026276 9.018836 -7.968004 1.368008 21.56425 6.425252 2.685193 -25.98021 9.508344 5.803018 -18.67918 11.08816 85.77213 34.96413 -19.41781 -0 0 14.85343 -7.056572 8.910492 3.890015 7.157402 -20.71784 0.357454 -93.67474 23.6618 20.98167 0 0 -14.12705 11.46971 16.84803 0.7811099
0.6105367 102.4827 7.202924 -0.6090895 2.161961 0.2615932 6.004909 -21.75993 7.812225 -0 26.05261 -0 -8.031728 -13.25027 -2.324652 -5.986895 7.813633 -18.71302 -0 19.8474 -0 4.483668 -16.69029 20.49097 -2.518205 -2.452755 4.637623 3.314551 8.784833 -8.010955 1.243488 21.32232 6.636009 2.857073 -26.3869 9.443523 5.937049 -18.00639 11.23288 86.07892 36.28266 -19.8933 -0 0 13.63185 -6.620397 9.008846 4.129545 6.449628 -20.53465 -0.0003661807 -92.72851 23.94167 20.34773 0 0 -15.90453 11.05851 15.51805 1.321676
0.7373634 102.534 10.48421 -0.8449647 2.650445 0.4159305 6.515504 -22.3713 7.592787 -0 24.30294 -0 -8.445406 -12.86461 -2.117602 -5.765935 7.283125 -18.00661 -0 24.20755 -0 3.977534 -15.38848 18.93524 -2.264258 -2.06458 4.502504 3.512639 8.670816 -8.020608 1.149911 21.20212 6.716063 2.8972 -26.59728 9.348275 5.971382 -17.59418 11.34915 86.38379 37.07787 -20.21331 -0 0 12.7524 -6.386719 9.112078 4.390523 5.843828 -20.33976 -0.3077884 -92.06915 24.05915 20.01077 0 0 -17.11083 10.61488 14.52401 1.883989
0.84509 102.7123 14.05127 -0.9840378 2.826339 0.5499003 6.849516 -22.2957 7.363348 -0 22.98997 -0 -8.757457 -12.61655 -2.010282 -5.589245 6.667536 -17.35366 -0 28.17294 -0 3.569476 -14.12609 17.72771 -2.042606 -1.78615 4.43643 3.639723 8.649917 -7.999098 1.074699 21.1618 6.71708 2.861094 -26.67232 9.224551 5.908108 -17.3455 11.45404 86.70889 37.48676 -20.44238 -0 0 12.06952 -6.330988 9.221945 4.677456 5.294572 -20.16488 -0.6071552 -91.56627 24.0625 19.8491 0 0 -18.00075 10.15947 13.72829 2.4475
0.937387 103.0121 17.85484 -1.046568 2.749814 0.6476591 7.040335 -21.61946 7.106013 -0 21.98539 -0 -9.014795 -12.48264 -1.966393 -5.431252 5.890057 -16.71032 -0 31.93754 -0 3.19963 -12.86156 16.74871 -1.838297 -1.587614 4.434857 3.701271 8.711435 -7.947439 1.012401 21.18495 6.655169 2.768935 -26.63112 9.069978 5.760631 -17.23008 11.55472 87.03897 37.57907 -20.58551 -0 0 11.55186 -6.437767 9.345825 4.988753 4.784094 -20.01897 -0.9066117 -91.18241 23.97851 19.83625 0 0 -18.64889 9.693744 13.09025 3.01234
1.015964 103.4339 21.85488 -1.044795 2.462742 0.6966193 7.117413 -20.37705 6.827394 -0 21.20963 -0 -9.238465 -12.47239 -1.966713 -5.270889 4.879592 -16.04621 -0 35.62579 -0 2.845321 -11.54991 15.93189 -1.643198 -1.45057 4.499748 3.701809 8.849993 -7.867078 0.9582108 21.25666 6.538048 2.631443 -26.48391 8.880203 5.54646 -17.23556 11.65787 87.3552 37.42382 -20.63626 -0 0 11.19238 -6.689541 9.496945 5.327987 4.292478 -19.90095 -1.21125 -90.89266 23.82651 19.96974 0 0 -19.11137 9.206784 12.57167 3.596269
1.081464 103.9779 26.01625 -0.9877964 1.990884 0.6855848 7.104028 -18.57596 6.540443 -0 20.59978 -0 -9.433447 -12.60328 -1.999754 -5.085542 3.569012 -15.33499 -0 39.26934 -0 2.491776 -10.16481 15.2445 -1.451824 -1.361433 4.635552 3.641741 9.063208 -7.757772 0.9086063 21.36352 6.370048 2.456211 -26.23227 8.650088 5.280113 -17.36227 11.76818 87.63409 37.06991 -20.5762 -0 0 11.00431 -7.080675 9.690796 5.703349 3.809031 -19.81006 -1.523283 -90.68281 23.62095 20.25644 0 0 -19.42745 8.683056 12.14434 4.222456
1.134319 104.638 30.30564 -0.8839924 1.351447 0.6041875 7.018139 -16.20982 6.25958 -0 20.09163 -0 -9.592722 -12.89955 -2.057081 -4.84746 1.889286 -14.54945 -0 42.79935 -0 2.126106 -8.701639 14.67674 -1.261046 -1.307422 4.847374 3.518383 9.348007 -7.617104 0.8606889 21.49248 6.153854 2.249461 -25.87137 8.373872 4.974456 -17.61989 11.88838 87.84253 36.55288 -20.37132 -0 0 11.01915 -7.616365 9.94447 6.12902 3.332394 -19.74588 -1.841395 -90.54573 23.37398 20.70758 0 0 -19.62446 8.104098 11.78717 4.916774
1.175752 105.3931 34.69029 -0.7444234 0.5627227 0.4432979 6.874859 -13.28155 5.997459 -0 19.59989 -0 -9.698481 -13.3889 -2.129457 -4.519828 -0.2272174 -13.65739 -0 46.02293 -0 1.733488 -7.18618 14.23479 -1.070064 -1.272707 5.137737 3.328038 9.695833 -7.440916 0.811561 21.62886 5.892814 2.018025 -25.39357 8.046161 4.642813 -18.02324 12.01879 87.93324 35.90214 -19.96961 -0 0 11.28402 -8.31121 10.27539 6.626717 2.872652 -19.70815 -2.158953 -90.47787 23.09663 21.33118 0 0 -19.72246 7.451401 11.48288 5.703587
1.209002 106.1977 39.13899 -0.5860079 -0.3441749 0.1961126 6.689303 -9.834417 5.761588 -0 19.00077 -0 -9.722784 -14.09873 -2.203371 -4.054086 -2.834288 -12.61949 -0 48.5953 -0 1.296251 -5.686632 13.93574 -0.8810927 -1.234879 5.501846 3.069374 10.08599 -7.224354 0.7578289 21.75493 5.593688 1.771011 -24.7938 7.664141 4.301247 -18.5858 12.15624 87.84155 35.14882 -19.30095 -0 0 11.85586 -9.185277 10.69737 7.226108 2.45428 -19.69527 -2.460878 -90.47589 22.79963 22.12143 0 0 -19.73657 6.711699 11.21538 6.598347
1.240488 106.9719 43.62601 -0.4338364 -1.312682 -0.1403788 6.479941 -5.988456 5.549547 -0 18.1233 -0 -9.630485 -15.05029 -2.25816 -3.391009 -5.948408 -11.39048 -0 50.02092 -0 0.7960325 -4.322083 13.80053 -0.7000955 -1.162619 5.921609 2.748249 10.47814 -6.963761 0.695382 21.8505 5.269837 1.520896 -24.07708 7.231235 3.969656 -19.30869 12.29243 87.48811 34.33305 -18.28438 -0 0 12.78686 -10.25602 11.21241 7.961941 2.117451 -19.7013 -2.720639 -90.53246 22.49441 23.04431 0 0 -19.67864 5.884846 10.96747 7.597059
1.279952 107.5977 48.13812 -0.3200688 -2.253303 -0.5639957 6.271401 -1.967041 5.343602 -0 16.76702 -0 -9.387482 -16.2503 -2.265543 -2.470656 -9.516181 -9.927597 -0 49.73551 -0 0.2196254 -3.254227 13.84341 -0.5367145 -1.017409 6.360799 2.382708 10.80814 -6.659433 0.619938 21.89771 4.944043 1.283627 -23.26647 6.761744 3.669866 -20.165 12.41246 86.79391 33.50732 -16.84965 -0 0 14.09648 -11.52505 11.79792 8.864059 1.91364 -19.71204 -2.900297 -90.63188 22.19607 24.02256 0 0 -19.55854 4.992264 10.72036 8.665776
1.338097 107.9299 52.68154 -0.276456 -3.052554 -1.066575 6.093331 1.916868 5.108959 -0 14.76764 -0 -8.975745 -17.67985 -2.194573 -1.257364 -13.38518 -8.212357 -0 47.31557 -0 -0.4323219 -2.646425 14.06098 -0.4025752 -0.7632989 6.766508 2.00466 10.99456 -6.318303 0.5291528 21.89148 4.648912 1.077504 -22.40662 6.284549 3.419087 -21.08429 12.49471 85.7121 32.73128 -14.97646 -0 0 15.73275 -12.96231 12.39348 9.937563 1.891273 -19.70211 -2.957965 -90.74864 21.92936 24.93013 0 0 -19.38376 4.080623 10.45709 9.737633
1.421005 107.8269 57.28302 -0.3205456 -3.606907 -1.634449 5.97033 5.342277 4.801827 -0 12.10972 -0 -8.410834 -19.28024 -2.023089 0.2198578 -17.30301 -6.287537 -0 42.77478 -0 -1.138473 -2.590415 14.42998 -0.3084701 -0.3855992 7.081763 1.653836 10.96234 -5.954026 0.4268364 21.85247 4.422282 0.9215764 -21.55719 5.842639 3.219622 -21.94934 12.51356 84.26929 32.05593 -12.73895 -0 0 17.54256 -14.49695 12.89785 11.13841 2.072824 -19.63611 -2.864596 -90.85524 21.7352 25.61114 0 0 -19.1508 3.214333 10.17146 10.72491
1.524007 107.1959 61.98158 -0.4428871 -3.870785 -2.251048 5.903091 8.110725 4.387482 -0 9.027051 -0 -7.749441 -20.93239 -1.75018 1.828685 -20.96542 -4.29526 -0 36.74855 -0 -1.858672 -3.040512 14.92171 -0.2629701 0.0897871 7.266696 1.363681 10.67715 -5.581852 0.328273 21.83153 4.296921 0.8344759 -20.77686 5.48624 3.049651 -22.61947 12.44481 82.59158 31.50066 -10.32177 -0 0 19.28583 -16.02889 13.18773 12.36362 2.436641 -19.4749 -2.623182 -90.94283 21.66797 25.93113 0 0 -18.81935 2.456617 9.878709 11.54338
1.630974 106.0279 66.81787 -0.6065256 -3.884266 -2.901389 5.85375 10.24154 3.8564 -0 5.997867 -0 -7.073734 -22.43029 -1.398807 3.331752 -24.09791 -2.481366 -0 30.32532 -0 -2.544739 -3.817569 15.52401 -0.2741797 0.5918393 7.315299 1.146612 10.16915 -5.209533 0.2631679 21.8929 4.288194 0.8328826 -20.10902 5.26159 2.861207 -22.98098 12.27191 80.88963 31.03147 -7.975997 -0 0 20.71367 -17.46587 13.15693 13.47755 2.921088 -19.18413 -2.275961 -91.04531 21.77332 25.84472 0 0 -18.27786 1.850033 9.617974 12.13361
1.72247 104.4042 71.83421 -0.7607639 -3.755197 -3.574808 5.75111 11.95113 3.227976 -0 3.618278 -0 -6.455481 -23.46481 -1.00469 4.442972 -26.51493 -1.140005 -0 24.55976 -0 -3.148861 -4.694032 16.24765 -0.3521022 1.021303 7.256096 0.9879619 9.528896 -4.831122 0.2719402 22.07885 4.38649 0.9273675 -19.57969 5.200812 2.588869 -23.00015 11.99031 79.40798 30.55297 -5.933865 -0 0 21.67326 -18.765 12.75583 14.36769 3.449834 -18.7412 -1.893062 -91.24219 22.0528 25.44059 0 0 -17.34333 1.409689 9.436026 12.46874
1.788056 102.4741 77.08639 -0.8563402 -3.612328 -4.261209 5.511932 13.53202 2.550283 -0 2.46417 -0 -5.925459 -23.64681 -0.6022185 4.913317 -28.11422 -0.5221574 -0 20.05252 -0 -3.619699 -5.489749 17.10728 -0.5090069 1.277168 7.139607 0.8505233 8.881626 -4.430497 0.3940902 22.38031 4.559123 1.116551 -19.2041 5.315986 2.17109 -22.74204 11.61042 78.37082 29.93447 -4.345729 -0 0 22.16034 -19.94155 12.00951 14.9876 3.953984 -18.1423 -1.552241 -91.62503 22.44354 24.92952 0 0 -15.83408 1.130493 9.358961 12.55589
1.834187 100.4267 82.65109 -0.8502291 -3.565768 -4.940806 5.06015 15.21525 1.905671 -0 3.036276 -0 -5.474357 -22.58241 -0.2202853 4.596755 -28.83003 -0.7595181 -0 16.90769 -0 -3.895492 -6.110853 18.08963 -0.7597421 1.279258 7.023049 0.6854184 8.357815 -3.994209 0.6515291 22.73734 4.761365 1.384946 -18.99006 5.595254 1.584059 -22.33878 11.16103 77.94079 29.07805 -3.275053 -0 0 22.27815 -21.03127 11.01281 15.3536 4.375399 -17.41449 -1.32149 -92.24149 22.83441 24.57173 0 0 -13.68875 0.99909 9.375724 12.4378
1.883562 98.47052 88.61108 -0.704983 -3.688834 -5.572626 4.339062 17.06557 1.408488 -0 5.738147 -0 -5.083951 -19.98908 0.1129022 3.487318 -28.60709 -1.819376 -0 14.97556 -0 -3.914282 -6.539821 19.12456 -1.121508 0.9892267 6.955166 0.4464247 8.067858 -3.52715 1.031382 23.06796 4.953014 1.707857 -18.93316 5.997737 0.8785659 -21.92636 10.69333 78.18212 27.99747 -2.727449 -0 0 22.1412 -22.03899 9.913828 15.51004 4.66316 -16.63201 -1.24731 -93.04606 23.11074 24.56753 0 0 -11.06039 1.003616 9.449756 12.18652
1.967504 96.81609 95.01595 -0.3972732 -4.011559 -6.089058 3.331087 18.91062 1.171688 -0 10.7753 -0 -4.760999 -15.83414 0.3675 1.742574 -27.42874 -3.482188 -0 14.09281 -0 -3.645123 -6.818029 20.07175 -1.605545 0.4364075 6.957067 0.1083423 8.079007 -3.064876 1.47456 23.30627 5.115015 2.059826 -19.00747 6.450005 0.1978662 -21.58459 10.28267 79.02858 26.85319 -2.680012 -0 0 21.79272 -22.91896 8.891803 15.5009 4.77987 -15.92526 -1.349142 -93.88066 23.20329 24.94921 0 0 -8.332716 1.139876 9.548739 11.87982
